<svg id="Layer_1" data-name="Layer 1" xmlns="http://www.w3.org/2000/svg" viewBox="0 0 209.93 53.19"><defs><style>.cls-1{fill:#231f20;}</style></defs><title>ocular-logo</title><path class="cls-1" d="M82,39.55a10.43,10.43,0,0,1-4.58-1,11.37,11.37,0,0,1-3.53-2.62,12.18,12.18,0,0,1-3.09-8,11.57,11.57,0,0,1,.86-4.4A12.2,12.2,0,0,1,74,19.77a11.43,11.43,0,0,1,3.58-2.58,10.71,10.71,0,0,1,4.5-1,10.1,10.1,0,0,1,4.55,1,11.35,11.35,0,0,1,3.51,2.67,12.34,12.34,0,0,1,2.27,3.75A11.86,11.86,0,0,1,93.25,28a11.62,11.62,0,0,1-.85,4.38A11.79,11.79,0,0,1,90.07,36a11.22,11.22,0,0,1-3.56,2.56A10.56,10.56,0,0,1,82,39.55ZM75.34,27.89a9,9,0,0,0,.46,2.88,7.64,7.64,0,0,0,1.31,2.46A6.51,6.51,0,0,0,79.21,35a6.48,6.48,0,0,0,5.7,0A6.5,6.5,0,0,0,87,33.17a7.74,7.74,0,0,0,1.3-2.48,9.25,9.25,0,0,0,.44-2.8A9.05,9.05,0,0,0,88.28,25,8.09,8.09,0,0,0,87,22.55a6.33,6.33,0,0,0-2.1-1.7,6.6,6.6,0,0,0-5.69,0,6.51,6.51,0,0,0-2.1,1.75,7.79,7.79,0,0,0-1.28,2.46A9.25,9.25,0,0,0,75.34,27.89Z" transform="translate(-0.88 -1.17)"/><path class="cls-1" d="M97.1,27.73a11.85,11.85,0,0,1,.76-4.16,11,11,0,0,1,2.22-3.67,10.91,10.91,0,0,1,8.35-3.63,10.41,10.41,0,0,1,5.48,1.39,8.83,8.83,0,0,1,3.45,3.63l-3.43,2.36a5.76,5.76,0,0,0-1.1-1.63A5.46,5.46,0,0,0,111.44,21a6.77,6.77,0,0,0-1.56-.56,7.23,7.23,0,0,0-1.58-.18,6.07,6.07,0,0,0-2.93.68,6.43,6.43,0,0,0-2.07,1.76,7.94,7.94,0,0,0-1.25,2.46,9.36,9.36,0,0,0-.42,2.74,9,9,0,0,0,.48,2.93,7.93,7.93,0,0,0,1.38,2.47A6.75,6.75,0,0,0,105.63,35a5.85,5.85,0,0,0,2.73.65,7.17,7.17,0,0,0,1.62-.2,6.08,6.08,0,0,0,1.6-.61A5.8,5.8,0,0,0,113,33.73a5,5,0,0,0,1-1.6l3.66,2.11a7,7,0,0,1-1.57,2.28,10.34,10.34,0,0,1-2.3,1.67,12.18,12.18,0,0,1-2.74,1,11.84,11.84,0,0,1-2.85.36,9.8,9.8,0,0,1-4.5-1,11.68,11.68,0,0,1-3.51-2.7,12.62,12.62,0,0,1-2.3-3.79A11.79,11.79,0,0,1,97.1,27.73Z" transform="translate(-0.88 -1.17)"/><path class="cls-1" d="M131.57,35.6a5.13,5.13,0,0,0,2.67-.65A5.06,5.06,0,0,0,136,33.26a6.92,6.92,0,0,0,.94-2.37,14.07,14.07,0,0,0,.27-2.77V16.4h4.44V28.12a16.64,16.64,0,0,1-.57,4.43,10.1,10.1,0,0,1-1.78,3.63,8.67,8.67,0,0,1-3.12,2.46,10.64,10.64,0,0,1-4.57.91,10.37,10.37,0,0,1-4.67-1,8.81,8.81,0,0,1-3.13-2.52,10.19,10.19,0,0,1-1.73-3.65,17.41,17.41,0,0,1-.53-4.3V16.4H126V28.12a14.22,14.22,0,0,0,.28,2.8,7,7,0,0,0,.94,2.38A5.09,5.09,0,0,0,129,35,5,5,0,0,0,131.57,35.6Z" transform="translate(-0.88 -1.17)"/><path class="cls-1" d="M147.3,39.38v-23h4.47V35.47h11.72v3.91Z" transform="translate(-0.88 -1.17)"/><path class="cls-1" d="M175.86,16.4h3.94l8.75,23H184l-2.14-5.73h-8l-2.1,5.73h-4.6ZM181,30.51l-3.17-9-3.3,9Z" transform="translate(-0.88 -1.17)"/><path class="cls-1" d="M192.24,39.38v-23H202.4a6.56,6.56,0,0,1,2.93.66,7.71,7.71,0,0,1,2.31,1.75,8.34,8.34,0,0,1,1.53,2.46,7.55,7.55,0,0,1,.55,2.77,7.68,7.68,0,0,1-1.12,4.06,6.41,6.41,0,0,1-3,2.64l5.25,8.64h-5l-4.69-7.7H196.7v7.7Zm4.46-11.62h5.6a2.29,2.29,0,0,0,1.15-.29,2.79,2.79,0,0,0,.92-.79A4,4,0,0,0,205,25.5a4.65,4.65,0,0,0,.23-1.46,4.2,4.2,0,0,0-.26-1.49,4.05,4.05,0,0,0-.7-1.18,3.12,3.12,0,0,0-1-.78,2.65,2.65,0,0,0-1.15-.27H196.7Z" transform="translate(-0.88 -1.17)"/><path d="M54,25.7A26.21,26.21,0,0,0,44.65,7.46,26.44,26.44,0,0,0,25.82,1.22,26,26,0,0,0,10.16,7.6,26.54,26.54,0,0,0,1,30.1,26,26,0,0,0,6.8,44.46a26.25,26.25,0,0,0,14.7,9.21,23.69,23.69,0,0,0,4.82.65,2.7,2.7,0,0,1,.28,0h1.8l1.13-.09a26.12,26.12,0,0,0,17.12-8.09,26.07,26.07,0,0,0,7-13.57A25.44,25.44,0,0,0,54,25.7ZM41.24,28.85a25.46,25.46,0,0,1-8,5.12,15.56,15.56,0,0,1-6.18,1.15A16.41,16.41,0,0,1,21,33.68a26.64,26.64,0,0,1-8.2-5.74l-.19-.21c.75-.68,1.46-1.36,2.21-2a24.09,24.09,0,0,1,7.51-4.41,15.24,15.24,0,0,1,5.8-.91A16.68,16.68,0,0,1,34,21.84a26.74,26.74,0,0,1,8.19,5.73l.14.15a0,0,0,0,1,0,0C42,28.12,41.61,28.51,41.24,28.85Z" transform="translate(-0.88 -1.17)"/><path d="M27.49,33.68a5.93,5.93,0,1,1,5.93-5.94A5.92,5.92,0,0,1,27.49,33.68Z" transform="translate(-0.88 -1.17)"/></svg>